# xmcd
#
# Track frame offsets:
#	150
#	15375
#	27600
#	37950
#	51375
#	65850
#	78825
#	90675
#	106275
#	121950
#	137715
#	150540
#	163965
#	182115
#	192540
#	206790
#	220890
#	233865
#	247215
#	261540
#
# Disc length: 3699 seconds
#
# Revision: 0
# Processed by: cddbd v1.5.2PL0 Copyright (c) Steve Scherf et al.
# Submitted via: EasyCDDAExtractor 15.3.0.1
#
DISCID=2f0e7114
DTITLE=Don Williams - Images
DYEAR=1978
DGENRE=Country
TTITLE0=I Recall A Gypsy Woman
TTITLE1=Don't You Believe
TTITLE2=Fly Away
TTITLE3=Goodbye Isn't Really Good At All
TTITLE4=I Wouldn't Want To Live (if You Didn't Love Me)
TTITLE5=Reason To Be
TTITLE6=Such A Lovely Lady
TTITLE7=Tempted
TTITLE8=Till The Rivers All Run Dry
TTITLE9=She's In Love With A Rodeo Man
TTITLE10=You're My Best Friend
TTITLE11=Where Are You
TTITLE12=Where The Arkansas River Leaves Oklahoma
TTITLE13=Why Lord Goodbye
TTITLE14=Cup O'tea
TTITLE15=Amanda
TTITLE16=Atta Way To Go
TTITLE17=In The Shelter Of Your Eyes
TTITLE18=We Should Be Together
TTITLE19=Womans Love
EXTD=
EXTT0=
EXTT1=
EXTT2=
EXTT3=
EXTT4=
EXTT5=
EXTT6=
EXTT7=
EXTT8=
EXTT9=
EXTT10=
EXTT11=
EXTT12=
EXTT13=
EXTT14=
EXTT15=
EXTT16=
EXTT17=
EXTT18=
EXTT19=
PLAYORDER=
